<svg width="257" height="256" viewBox="0 0 257 256" fill="none" xmlns="http://www.w3.org/2000/svg">
<g id="Guide">
<g id="Union">
<path fill-rule="evenodd" clip-rule="evenodd" d="M207.025 205.735H121.878H120.315C120.302 205.735 120.292 205.725 120.292 205.713C120.292 205.701 120.283 205.691 120.271 205.69C105.321 204.862 93.4551 192.539 93.4551 177.459C93.4551 161.843 106.18 149.184 121.878 149.184C122.708 149.184 123.418 148.566 123.517 147.747C125.977 127.363 143.421 111.563 164.573 111.563C185.805 111.563 203.3 127.481 205.657 147.975C205.736 148.663 206.329 149.184 207.025 149.184C222.723 149.184 235.448 161.843 235.448 177.459C235.448 193.035 222.788 205.669 207.147 205.735L207.025 205.735Z" fill="url(#paint0_linear_3031_68198)"/>
<path fill-rule="evenodd" clip-rule="evenodd" d="M207.025 205.735H121.878H120.315C120.302 205.735 120.292 205.725 120.292 205.713C120.292 205.701 120.283 205.691 120.271 205.69C105.321 204.862 93.4551 192.539 93.4551 177.459C93.4551 161.843 106.18 149.184 121.878 149.184C122.708 149.184 123.418 148.566 123.517 147.747C125.977 127.363 143.421 111.563 164.573 111.563C185.805 111.563 203.3 127.481 205.657 147.975C205.736 148.663 206.329 149.184 207.025 149.184C222.723 149.184 235.448 161.843 235.448 177.459C235.448 193.035 222.788 205.669 207.147 205.735L207.025 205.735Z" fill="url(#paint1_radial_3031_68198)"/>
<path fill-rule="evenodd" clip-rule="evenodd" d="M207.025 205.735H121.878H120.315C120.302 205.735 120.292 205.725 120.292 205.713C120.292 205.701 120.283 205.691 120.271 205.69C105.321 204.862 93.4551 192.539 93.4551 177.459C93.4551 161.843 106.18 149.184 121.878 149.184C122.708 149.184 123.418 148.566 123.517 147.747C125.977 127.363 143.421 111.563 164.573 111.563C185.805 111.563 203.3 127.481 205.657 147.975C205.736 148.663 206.329 149.184 207.025 149.184C222.723 149.184 235.448 161.843 235.448 177.459C235.448 193.035 222.788 205.669 207.147 205.735L207.025 205.735Z" fill="url(#paint2_radial_3031_68198)"/>
<path fill-rule="evenodd" clip-rule="evenodd" d="M207.025 205.735H121.878H120.315C120.302 205.735 120.292 205.725 120.292 205.713C120.292 205.701 120.283 205.691 120.271 205.69C105.321 204.862 93.4551 192.539 93.4551 177.459C93.4551 161.843 106.18 149.184 121.878 149.184C122.708 149.184 123.418 148.566 123.517 147.747C125.977 127.363 143.421 111.563 164.573 111.563C185.805 111.563 203.3 127.481 205.657 147.975C205.736 148.663 206.329 149.184 207.025 149.184C222.723 149.184 235.448 161.843 235.448 177.459C235.448 193.035 222.788 205.669 207.147 205.735L207.025 205.735Z" fill="url(#paint3_radial_3031_68198)" fill-opacity="0.8"/>
<path fill-rule="evenodd" clip-rule="evenodd" d="M207.025 205.735H121.878H120.315C120.302 205.735 120.292 205.725 120.292 205.713C120.292 205.701 120.283 205.691 120.271 205.69C105.321 204.862 93.4551 192.539 93.4551 177.459C93.4551 161.843 106.18 149.184 121.878 149.184C122.708 149.184 123.418 148.566 123.517 147.747C125.977 127.363 143.421 111.563 164.573 111.563C185.805 111.563 203.3 127.481 205.657 147.975C205.736 148.663 206.329 149.184 207.025 149.184C222.723 149.184 235.448 161.843 235.448 177.459C235.448 193.035 222.788 205.669 207.147 205.735L207.025 205.735Z" fill="url(#paint4_radial_3031_68198)"/>
<path fill-rule="evenodd" clip-rule="evenodd" d="M207.025 205.735H121.878H120.315C120.302 205.735 120.292 205.725 120.292 205.713C120.292 205.701 120.283 205.691 120.271 205.69C105.321 204.862 93.4551 192.539 93.4551 177.459C93.4551 161.843 106.18 149.184 121.878 149.184C122.708 149.184 123.418 148.566 123.517 147.747C125.977 127.363 143.421 111.563 164.573 111.563C185.805 111.563 203.3 127.481 205.657 147.975C205.736 148.663 206.329 149.184 207.025 149.184C222.723 149.184 235.448 161.843 235.448 177.459C235.448 193.035 222.788 205.669 207.147 205.735L207.025 205.735Z" fill="url(#paint5_radial_3031_68198)" fill-opacity="0.8"/>
<path fill-rule="evenodd" clip-rule="evenodd" d="M207.025 205.735H121.878H120.315C120.302 205.735 120.292 205.725 120.292 205.713C120.292 205.701 120.283 205.691 120.271 205.69C105.321 204.862 93.4551 192.539 93.4551 177.459C93.4551 161.843 106.18 149.184 121.878 149.184C122.708 149.184 123.418 148.566 123.517 147.747C125.977 127.363 143.421 111.563 164.573 111.563C185.805 111.563 203.3 127.481 205.657 147.975C205.736 148.663 206.329 149.184 207.025 149.184C222.723 149.184 235.448 161.843 235.448 177.459C235.448 193.035 222.788 205.669 207.147 205.735L207.025 205.735Z" fill="url(#paint6_radial_3031_68198)" fill-opacity="0.6"/>
</g>
<g id="Union_2">
<path fill-rule="evenodd" clip-rule="evenodd" d="M136.028 136.077H50.8815H49.318C49.3056 136.077 49.2956 136.067 49.2956 136.054C49.2956 136.043 49.2863 136.033 49.2744 136.032C34.3245 135.203 22.4585 122.881 22.4585 107.801C22.4585 92.1848 35.1839 79.5253 50.8815 79.5253C51.7111 79.5253 52.4214 78.908 52.5203 78.0885C54.9806 57.7048 72.424 41.9053 93.5769 41.9053C114.809 41.9053 132.303 57.8231 134.66 78.3171C134.739 79.0048 135.333 79.5253 136.028 79.5253C151.726 79.5253 164.451 92.1848 164.451 107.801C164.451 123.377 151.792 136.011 136.15 136.077L136.028 136.077Z" fill="url(#paint7_linear_3031_68198)"/>
<path fill-rule="evenodd" clip-rule="evenodd" d="M136.028 136.077H50.8815H49.318C49.3056 136.077 49.2956 136.067 49.2956 136.054C49.2956 136.043 49.2863 136.033 49.2744 136.032C34.3245 135.203 22.4585 122.881 22.4585 107.801C22.4585 92.1848 35.1839 79.5253 50.8815 79.5253C51.7111 79.5253 52.4214 78.908 52.5203 78.0885C54.9806 57.7048 72.424 41.9053 93.5769 41.9053C114.809 41.9053 132.303 57.8231 134.66 78.3171C134.739 79.0048 135.333 79.5253 136.028 79.5253C151.726 79.5253 164.451 92.1848 164.451 107.801C164.451 123.377 151.792 136.011 136.15 136.077L136.028 136.077Z" fill="url(#paint8_radial_3031_68198)"/>
<path fill-rule="evenodd" clip-rule="evenodd" d="M136.028 136.077H50.8815H49.318C49.3056 136.077 49.2956 136.067 49.2956 136.054C49.2956 136.043 49.2863 136.033 49.2744 136.032C34.3245 135.203 22.4585 122.881 22.4585 107.801C22.4585 92.1848 35.1839 79.5253 50.8815 79.5253C51.7111 79.5253 52.4214 78.908 52.5203 78.0885C54.9806 57.7048 72.424 41.9053 93.5769 41.9053C114.809 41.9053 132.303 57.8231 134.66 78.3171C134.739 79.0048 135.333 79.5253 136.028 79.5253C151.726 79.5253 164.451 92.1848 164.451 107.801C164.451 123.377 151.792 136.011 136.15 136.077L136.028 136.077Z" fill="url(#paint9_radial_3031_68198)" fill-opacity="0.6"/>
<path fill-rule="evenodd" clip-rule="evenodd" d="M136.028 136.077H50.8815H49.318C49.3056 136.077 49.2956 136.067 49.2956 136.054C49.2956 136.043 49.2863 136.033 49.2744 136.032C34.3245 135.203 22.4585 122.881 22.4585 107.801C22.4585 92.1848 35.1839 79.5253 50.8815 79.5253C51.7111 79.5253 52.4214 78.908 52.5203 78.0885C54.9806 57.7048 72.424 41.9053 93.5769 41.9053C114.809 41.9053 132.303 57.8231 134.66 78.3171C134.739 79.0048 135.333 79.5253 136.028 79.5253C151.726 79.5253 164.451 92.1848 164.451 107.801C164.451 123.377 151.792 136.011 136.15 136.077L136.028 136.077Z" fill="url(#paint10_radial_3031_68198)"/>
<path fill-rule="evenodd" clip-rule="evenodd" d="M136.028 136.077H50.8815H49.318C49.3056 136.077 49.2956 136.067 49.2956 136.054C49.2956 136.043 49.2863 136.033 49.2744 136.032C34.3245 135.203 22.4585 122.881 22.4585 107.801C22.4585 92.1848 35.1839 79.5253 50.8815 79.5253C51.7111 79.5253 52.4214 78.908 52.5203 78.0885C54.9806 57.7048 72.424 41.9053 93.5769 41.9053C114.809 41.9053 132.303 57.8231 134.66 78.3171C134.739 79.0048 135.333 79.5253 136.028 79.5253C151.726 79.5253 164.451 92.1848 164.451 107.801C164.451 123.377 151.792 136.011 136.15 136.077L136.028 136.077Z" fill="url(#paint11_radial_3031_68198)"/>
<path fill-rule="evenodd" clip-rule="evenodd" d="M136.028 136.077H50.8815H49.318C49.3056 136.077 49.2956 136.067 49.2956 136.054C49.2956 136.043 49.2863 136.033 49.2744 136.032C34.3245 135.203 22.4585 122.881 22.4585 107.801C22.4585 92.1848 35.1839 79.5253 50.8815 79.5253C51.7111 79.5253 52.4214 78.908 52.5203 78.0885C54.9806 57.7048 72.424 41.9053 93.5769 41.9053C114.809 41.9053 132.303 57.8231 134.66 78.3171C134.739 79.0048 135.333 79.5253 136.028 79.5253C151.726 79.5253 164.451 92.1848 164.451 107.801C164.451 123.377 151.792 136.011 136.15 136.077L136.028 136.077Z" fill="url(#paint12_radial_3031_68198)"/>
</g>
<g id="Union_3">
<path fill-rule="evenodd" clip-rule="evenodd" d="M136.028 136.077H50.8815H49.318C49.3056 136.077 49.2956 136.067 49.2956 136.054C49.2956 136.043 49.2863 136.033 49.2744 136.032C34.3245 135.203 22.4585 122.881 22.4585 107.801C22.4585 92.1848 35.1839 79.5253 50.8815 79.5253C51.7111 79.5253 52.4214 78.908 52.5203 78.0885C54.9806 57.7048 72.424 41.9053 93.5769 41.9053C114.809 41.9053 132.303 57.8231 134.66 78.3171C134.739 79.0048 135.333 79.5253 136.028 79.5253C151.726 79.5253 164.451 92.1848 164.451 107.801C164.451 123.377 151.792 136.011 136.15 136.077L136.028 136.077Z" fill="url(#paint13_radial_3031_68198)"/>
<path fill-rule="evenodd" clip-rule="evenodd" d="M136.028 136.077H50.8815H49.318C49.3056 136.077 49.2956 136.067 49.2956 136.054C49.2956 136.043 49.2863 136.033 49.2744 136.032C34.3245 135.203 22.4585 122.881 22.4585 107.801C22.4585 92.1848 35.1839 79.5253 50.8815 79.5253C51.7111 79.5253 52.4214 78.908 52.5203 78.0885C54.9806 57.7048 72.424 41.9053 93.5769 41.9053C114.809 41.9053 132.303 57.8231 134.66 78.3171C134.739 79.0048 135.333 79.5253 136.028 79.5253C151.726 79.5253 164.451 92.1848 164.451 107.801C164.451 123.377 151.792 136.011 136.15 136.077L136.028 136.077Z" fill="url(#paint14_radial_3031_68198)"/>
<path fill-rule="evenodd" clip-rule="evenodd" d="M136.028 136.077H50.8815H49.318C49.3056 136.077 49.2956 136.067 49.2956 136.054C49.2956 136.043 49.2863 136.033 49.2744 136.032C34.3245 135.203 22.4585 122.881 22.4585 107.801C22.4585 92.1848 35.1839 79.5253 50.8815 79.5253C51.7111 79.5253 52.4214 78.908 52.5203 78.0885C54.9806 57.7048 72.424 41.9053 93.5769 41.9053C114.809 41.9053 132.303 57.8231 134.66 78.3171C134.739 79.0048 135.333 79.5253 136.028 79.5253C151.726 79.5253 164.451 92.1848 164.451 107.801C164.451 123.377 151.792 136.011 136.15 136.077L136.028 136.077Z" fill="url(#paint15_radial_3031_68198)" fill-opacity="0.8"/>
<path fill-rule="evenodd" clip-rule="evenodd" d="M136.028 136.077H50.8815H49.318C49.3056 136.077 49.2956 136.067 49.2956 136.054C49.2956 136.043 49.2863 136.033 49.2744 136.032C34.3245 135.203 22.4585 122.881 22.4585 107.801C22.4585 92.1848 35.1839 79.5253 50.8815 79.5253C51.7111 79.5253 52.4214 78.908 52.5203 78.0885C54.9806 57.7048 72.424 41.9053 93.5769 41.9053C114.809 41.9053 132.303 57.8231 134.66 78.3171C134.739 79.0048 135.333 79.5253 136.028 79.5253C151.726 79.5253 164.451 92.1848 164.451 107.801C164.451 123.377 151.792 136.011 136.15 136.077L136.028 136.077Z" fill="url(#paint16_radial_3031_68198)"/>
<path fill-rule="evenodd" clip-rule="evenodd" d="M136.028 136.077H50.8815H49.318C49.3056 136.077 49.2956 136.067 49.2956 136.054C49.2956 136.043 49.2863 136.033 49.2744 136.032C34.3245 135.203 22.4585 122.881 22.4585 107.801C22.4585 92.1848 35.1839 79.5253 50.8815 79.5253C51.7111 79.5253 52.4214 78.908 52.5203 78.0885C54.9806 57.7048 72.424 41.9053 93.5769 41.9053C114.809 41.9053 132.303 57.8231 134.66 78.3171C134.739 79.0048 135.333 79.5253 136.028 79.5253C151.726 79.5253 164.451 92.1848 164.451 107.801C164.451 123.377 151.792 136.011 136.15 136.077L136.028 136.077Z" fill="url(#paint17_radial_3031_68198)"/>
<path fill-rule="evenodd" clip-rule="evenodd" d="M136.028 136.077H50.8815H49.318C49.3056 136.077 49.2956 136.067 49.2956 136.054C49.2956 136.043 49.2863 136.033 49.2744 136.032C34.3245 135.203 22.4585 122.881 22.4585 107.801C22.4585 92.1848 35.1839 79.5253 50.8815 79.5253C51.7111 79.5253 52.4214 78.908 52.5203 78.0885C54.9806 57.7048 72.424 41.9053 93.5769 41.9053C114.809 41.9053 132.303 57.8231 134.66 78.3171C134.739 79.0048 135.333 79.5253 136.028 79.5253C151.726 79.5253 164.451 92.1848 164.451 107.801C164.451 123.377 151.792 136.011 136.15 136.077L136.028 136.077Z" fill="url(#paint18_radial_3031_68198)"/>
</g>
<g id="Union_4">
<path d="M93.9646 115.991C88.4252 115.991 83.9346 120.482 83.9346 126.021C83.9346 131.561 88.4252 136.051 93.9646 136.051H142.719L135.758 144.625C132.266 148.925 132.922 155.242 137.222 158.733C141.523 162.225 147.84 161.569 151.331 157.269L171.57 132.342C174.561 128.658 174.561 123.382 171.57 119.698L151.331 94.7717C147.84 90.4712 141.523 89.8155 137.222 93.3072C132.922 96.7988 132.266 103.116 135.758 107.416L142.72 115.991L93.9646 115.991Z" fill="url(#paint19_linear_3031_68198)"/>
<path d="M93.9646 115.991C88.4252 115.991 83.9346 120.482 83.9346 126.021C83.9346 131.561 88.4252 136.051 93.9646 136.051H142.719L135.758 144.625C132.266 148.925 132.922 155.242 137.222 158.733C141.523 162.225 147.84 161.569 151.331 157.269L171.57 132.342C174.561 128.658 174.561 123.382 171.57 119.698L151.331 94.7717C147.84 90.4712 141.523 89.8155 137.222 93.3072C132.922 96.7988 132.266 103.116 135.758 107.416L142.72 115.991L93.9646 115.991Z" fill="url(#paint20_radial_3031_68198)"/>
<path d="M93.9646 115.991C88.4252 115.991 83.9346 120.482 83.9346 126.021C83.9346 131.561 88.4252 136.051 93.9646 136.051H142.719L135.758 144.625C132.266 148.925 132.922 155.242 137.222 158.733C141.523 162.225 147.84 161.569 151.331 157.269L171.57 132.342C174.561 128.658 174.561 123.382 171.57 119.698L151.331 94.7717C147.84 90.4712 141.523 89.8155 137.222 93.3072C132.922 96.7988 132.266 103.116 135.758 107.416L142.72 115.991L93.9646 115.991Z" fill="url(#paint21_radial_3031_68198)"/>
<path d="M93.9646 115.991C88.4252 115.991 83.9346 120.482 83.9346 126.021C83.9346 131.561 88.4252 136.051 93.9646 136.051H142.719L135.758 144.625C132.266 148.925 132.922 155.242 137.222 158.733C141.523 162.225 147.84 161.569 151.331 157.269L171.57 132.342C174.561 128.658 174.561 123.382 171.57 119.698L151.331 94.7717C147.84 90.4712 141.523 89.8155 137.222 93.3072C132.922 96.7988 132.266 103.116 135.758 107.416L142.72 115.991L93.9646 115.991Z" fill="url(#paint22_radial_3031_68198)"/>
<path d="M93.9646 115.991C88.4252 115.991 83.9346 120.482 83.9346 126.021C83.9346 131.561 88.4252 136.051 93.9646 136.051H142.719L135.758 144.625C132.266 148.925 132.922 155.242 137.222 158.733C141.523 162.225 147.84 161.569 151.331 157.269L171.57 132.342C174.561 128.658 174.561 123.382 171.57 119.698L151.331 94.7717C147.84 90.4712 141.523 89.8155 137.222 93.3072C132.922 96.7988 132.266 103.116 135.758 107.416L142.72 115.991L93.9646 115.991Z" fill="url(#paint23_radial_3031_68198)"/>
</g>
<g id="Polygon 28">
<path d="M130.78 124.279C131.347 123.296 132.765 123.296 133.332 124.279L137.982 132.332C138.549 133.315 137.84 134.543 136.705 134.543H127.406C126.272 134.543 125.563 133.315 126.13 132.332L130.78 124.279Z" fill="url(#paint24_linear_3031_68198)"/>
<path d="M130.78 124.279C131.347 123.296 132.765 123.296 133.332 124.279L137.982 132.332C138.549 133.315 137.84 134.543 136.705 134.543H127.406C126.272 134.543 125.563 133.315 126.13 132.332L130.78 124.279Z" fill="url(#paint25_linear_3031_68198)"/>
<path d="M130.78 124.279C131.347 123.296 132.765 123.296 133.332 124.279L137.982 132.332C138.549 133.315 137.84 134.543 136.705 134.543H127.406C126.272 134.543 125.563 133.315 126.13 132.332L130.78 124.279Z" fill="url(#paint26_linear_3031_68198)"/>
<path d="M130.78 124.279C131.347 123.296 132.765 123.296 133.332 124.279L137.982 132.332C138.549 133.315 137.84 134.543 136.705 134.543H127.406C126.272 134.543 125.563 133.315 126.13 132.332L130.78 124.279Z" fill="url(#paint27_radial_3031_68198)"/>
</g>
<g id="Excell shadow">
<rect x="108.323" y="123.313" width="11.8447" height="11.2294" rx="2.80734" fill="url(#paint28_linear_3031_68198)"/>
<rect x="108.323" y="123.313" width="11.8447" height="11.2294" rx="2.80734" fill="url(#paint29_linear_3031_68198)"/>
<rect x="108.323" y="123.313" width="11.8447" height="11.2294" rx="2.80734" fill="url(#paint30_linear_3031_68198)"/>
</g>
<g id="Excell shadow_2">
<rect x="143.944" y="123.313" width="11.8447" height="11.2294" rx="2.80734" fill="url(#paint31_linear_3031_68198)"/>
<rect x="143.944" y="123.313" width="11.8447" height="11.2294" rx="2.80734" fill="url(#paint32_linear_3031_68198)"/>
<rect x="143.944" y="123.313" width="11.8447" height="11.2294" rx="2.80734" fill="url(#paint33_linear_3031_68198)"/>
<rect x="143.944" y="123.313" width="11.8447" height="11.2294" rx="2.80734" fill="url(#paint34_linear_3031_68198)"/>
</g>
<path id="Intersect" d="M89.4237 136.076H126.736C126.592 136.399 126.453 136.724 126.318 137.051H140.619L134.982 143.994C131.142 148.723 131.863 155.67 136.592 159.51C141.321 163.35 148.268 162.628 152.108 157.899L172.346 132.973C175.635 128.921 175.635 123.119 172.346 119.068L166.28 111.597C165.844 111.58 165.406 111.569 164.966 111.565L171.57 119.698C174.561 123.382 174.561 128.658 171.57 132.342L151.331 157.269C147.84 161.569 141.523 162.225 137.222 158.733C132.922 155.242 132.266 148.925 135.758 144.625L142.719 136.051H93.9646C88.4252 136.051 83.9346 131.561 83.9346 126.021C83.9346 120.482 88.4252 115.991 93.9646 115.991L142.72 115.991L135.758 107.416C132.266 103.116 132.922 96.7989 137.222 93.3072C141.523 89.8156 147.84 90.4713 151.331 94.7717L164.299 110.743C164.349 110.264 164.386 109.782 164.412 109.296L152.108 94.1414C148.268 89.4122 141.321 88.6911 136.592 92.5309C131.863 96.3706 131.142 103.317 134.982 108.046L140.62 114.991L93.9646 114.991C87.8729 114.991 82.9346 119.93 82.9346 126.021C82.9346 130.494 85.5971 134.345 89.4237 136.076Z" fill="#F2F1F3"/>
<g id="Ellipse 26577">
<circle cx="98.8643" cy="126.11" r="5.40923" fill="url(#paint35_radial_3031_68198)"/>
<circle cx="98.8643" cy="126.11" r="5.40923" fill="url(#paint36_radial_3031_68198)" fill-opacity="0.8"/>
</g>
<g id="Polygon 27">
<path d="M133.826 121.347C134.393 120.365 135.811 120.365 136.378 121.347L141.028 129.401C141.595 130.383 140.886 131.611 139.752 131.611H130.452C129.318 131.611 128.609 130.383 129.176 129.401L133.826 121.347Z" fill="url(#paint37_linear_3031_68198)"/>
<path d="M133.826 121.347C134.393 120.365 135.811 120.365 136.378 121.347L141.028 129.401C141.595 130.383 140.886 131.611 139.752 131.611H130.452C129.318 131.611 128.609 130.383 129.176 129.401L133.826 121.347Z" fill="url(#paint38_linear_3031_68198)" fill-opacity="0.8"/>
<path d="M133.826 121.347C134.393 120.365 135.811 120.365 136.378 121.347L141.028 129.401C141.595 130.383 140.886 131.611 139.752 131.611H130.452C129.318 131.611 128.609 130.383 129.176 129.401L133.826 121.347Z" fill="url(#paint39_linear_3031_68198)"/>
<path d="M133.826 121.347C134.393 120.365 135.811 120.365 136.378 121.347L141.028 129.401C141.595 130.383 140.886 131.611 139.752 131.611H130.452C129.318 131.611 128.609 130.383 129.176 129.401L133.826 121.347Z" fill="url(#paint40_linear_3031_68198)"/>
</g>
<g id="Vector">
<path d="M154.833 120.558C155.957 120.558 156.868 121.468 156.868 122.592V129.625C156.868 130.748 155.957 131.659 154.833 131.659H148.776C147.676 131.659 146.784 130.767 146.784 129.667V126.395C146.784 126.089 146.903 125.794 147.116 125.574L147.127 125.563H150.358C151.19 125.563 151.864 124.888 151.864 124.056V123.001C151.864 123.001 151.787 121.407 151.985 120.981C152.183 120.553 152.911 120.559 152.911 120.559L152.766 120.558L154.833 120.558Z" fill="url(#paint41_radial_3031_68198)"/>
<path d="M154.833 120.558C155.957 120.558 156.868 121.468 156.868 122.592V129.625C156.868 130.748 155.957 131.659 154.833 131.659H148.776C147.676 131.659 146.784 130.767 146.784 129.667V126.395C146.784 126.089 146.903 125.794 147.116 125.574L147.127 125.563H150.358C151.19 125.563 151.864 124.888 151.864 124.056V123.001C151.864 123.001 151.787 121.407 151.985 120.981C152.183 120.553 152.911 120.559 152.911 120.559L152.766 120.558L154.833 120.558Z" fill="url(#paint42_radial_3031_68198)"/>
<path d="M154.833 120.558C155.957 120.558 156.868 121.468 156.868 122.592V129.625C156.868 130.748 155.957 131.659 154.833 131.659H148.776C147.676 131.659 146.784 130.767 146.784 129.667V126.395C146.784 126.089 146.903 125.794 147.116 125.574L147.127 125.563H150.358C151.19 125.563 151.864 124.888 151.864 124.056V123.001C151.864 123.001 151.787 121.407 151.985 120.981C152.183 120.553 152.911 120.559 152.911 120.559L152.766 120.558L154.833 120.558Z" fill="url(#paint43_radial_3031_68198)"/>
</g>
<path id="Vector_2" d="M151.864 123.001V124.056C151.864 124.889 151.19 125.563 150.358 125.563H148.004C147.557 125.563 147.13 125.746 146.821 126.068C146.867 125.955 146.921 125.747 147.2 125.438L151.694 120.993C151.92 120.767 152.212 120.622 152.523 120.575C152.603 120.564 152.684 120.558 152.766 120.558L152.911 120.559C152.911 120.559 152.183 120.554 151.985 120.981C151.786 121.407 151.864 123.001 151.864 123.001Z" fill="url(#paint44_linear_3031_68198)"/>
<g id="Rectangle 34656122">
<rect x="121.404" y="120.558" width="11.1052" height="10.0337" rx="2.94712" transform="rotate(90 121.404 120.558)" fill="url(#paint45_linear_3031_68198)"/>
<rect x="121.404" y="120.558" width="11.1052" height="10.0337" rx="2.94712" transform="rotate(90 121.404 120.558)" fill="url(#paint46_radial_3031_68198)"/>
<rect x="121.404" y="120.558" width="11.1052" height="10.0337" rx="2.94712" transform="rotate(90 121.404 120.558)" fill="url(#paint47_linear_3031_68198)"/>
<rect x="121.404" y="120.558" width="11.1052" height="10.0337" rx="2.94712" transform="rotate(90 121.404 120.558)" fill="url(#paint48_linear_3031_68198)"/>
<rect x="121.404" y="120.558" width="11.1052" height="10.0337" rx="2.94712" transform="rotate(90 121.404 120.558)" fill="url(#paint49_radial_3031_68198)"/>
</g>
<g id="Line 4964 (Stroke)">
<path fill-rule="evenodd" clip-rule="evenodd" d="M115.442 126.48C115.442 125.971 115.854 125.559 116.363 125.559H121.772C122.281 125.559 122.693 125.971 122.693 126.48C122.693 126.988 122.281 127.401 121.772 127.401H116.363C115.854 127.401 115.442 126.988 115.442 126.48Z" fill="url(#paint50_linear_3031_68198)"/>
<path fill-rule="evenodd" clip-rule="evenodd" d="M115.442 126.48C115.442 125.971 115.854 125.559 116.363 125.559H121.772C122.281 125.559 122.693 125.971 122.693 126.48C122.693 126.988 122.281 127.401 121.772 127.401H116.363C115.854 127.401 115.442 126.988 115.442 126.48Z" fill="url(#paint51_radial_3031_68198)" fill-opacity="0.8"/>
<path fill-rule="evenodd" clip-rule="evenodd" d="M115.442 126.48C115.442 125.971 115.854 125.559 116.363 125.559H121.772C122.281 125.559 122.693 125.971 122.693 126.48C122.693 126.988 122.281 127.401 121.772 127.401H116.363C115.854 127.401 115.442 126.988 115.442 126.48Z" fill="url(#paint52_radial_3031_68198)" fill-opacity="0.7"/>
</g>
<g id="Line 4965 (Stroke)">
<path fill-rule="evenodd" clip-rule="evenodd" d="M115.442 123.294C115.442 122.785 115.854 122.373 116.363 122.373H121.772C122.281 122.373 122.693 122.785 122.693 123.294C122.693 123.803 122.281 124.215 121.772 124.215H116.363C115.854 124.215 115.442 123.803 115.442 123.294Z" fill="url(#paint53_linear_3031_68198)"/>
<path fill-rule="evenodd" clip-rule="evenodd" d="M115.442 123.294C115.442 122.785 115.854 122.373 116.363 122.373H121.772C122.281 122.373 122.693 122.785 122.693 123.294C122.693 123.803 122.281 124.215 121.772 124.215H116.363C115.854 124.215 115.442 123.803 115.442 123.294Z" fill="url(#paint54_radial_3031_68198)" fill-opacity="0.8"/>
<path fill-rule="evenodd" clip-rule="evenodd" d="M115.442 123.294C115.442 122.785 115.854 122.373 116.363 122.373H121.772C122.281 122.373 122.693 122.785 122.693 123.294C122.693 123.803 122.281 124.215 121.772 124.215H116.363C115.854 124.215 115.442 123.803 115.442 123.294Z" fill="url(#paint55_radial_3031_68198)" fill-opacity="0.7"/>
</g>
<g id="Union_5">
<path d="M132.096 161.501C132.096 161.79 131.861 162.025 131.572 162.025C131.283 162.025 131.049 161.79 131.049 161.501C131.049 161.212 131.283 160.978 131.572 160.978C131.861 160.978 132.096 161.212 132.096 161.501Z" fill="#0064BD"/>
<path d="M181.062 141.13C181.449 141.13 181.763 140.816 181.763 140.429C181.763 140.042 181.449 139.728 181.062 139.728C180.674 139.728 180.36 140.042 180.36 140.429C180.36 140.816 180.674 141.13 181.062 141.13Z" fill="#0064BD"/>
<path d="M138.661 165.638C139.345 165.638 139.899 165.083 139.899 164.4C139.899 163.716 139.345 163.162 138.661 163.162C137.977 163.162 137.423 163.716 137.423 164.4C137.423 165.083 137.977 165.638 138.661 165.638Z" fill="#0064BD"/>
<path d="M213.638 190.768C214.321 190.768 214.876 190.214 214.876 189.53C214.876 188.846 214.321 188.292 213.638 188.292C212.954 188.292 212.4 188.846 212.4 189.53C212.4 190.214 212.954 190.768 213.638 190.768Z" fill="#0064BD"/>
<path d="M218.451 183.385C218.451 183.773 218.137 184.087 217.749 184.087C217.362 184.087 217.048 183.773 217.048 183.385C217.048 182.998 217.362 182.684 217.749 182.684C218.137 182.684 218.451 182.998 218.451 183.385Z" fill="#0064BD"/>
<path d="M127.452 174.061C127.839 174.061 128.153 173.747 128.153 173.36C128.153 172.972 127.839 172.658 127.452 172.658C127.064 172.658 126.75 172.972 126.75 173.36C126.75 173.747 127.064 174.061 127.452 174.061Z" fill="#0064BD"/>
<path d="M192.121 165.101C192.121 165.488 191.807 165.802 191.42 165.802C191.033 165.802 190.719 165.488 190.719 165.101C190.719 164.714 191.033 164.4 191.42 164.4C191.807 164.4 192.121 164.714 192.121 165.101Z" fill="#0064BD"/>
<path d="M105.271 172.746C105.823 172.746 106.269 172.299 106.269 171.748C106.269 171.197 105.823 170.75 105.271 170.75C104.72 170.75 104.273 171.197 104.273 171.748C104.273 172.299 104.72 172.746 105.271 172.746Z" fill="#0064BD"/>
<path d="M109.07 177.277C109.07 177.664 108.756 177.978 108.369 177.978C107.981 177.978 107.668 177.664 107.668 177.277C107.668 176.89 107.981 176.576 108.369 176.576C108.756 176.576 109.07 176.89 109.07 177.277Z" fill="#0064BD"/>
<path d="M215.04 174.061C215.04 174.448 214.726 174.762 214.339 174.762C213.952 174.762 213.638 174.448 213.638 174.061C213.638 173.673 213.952 173.36 214.339 173.36C214.726 173.36 215.04 173.673 215.04 174.061Z" fill="#0064BD"/>
<path d="M180.809 194.852C180.809 195.24 180.495 195.554 180.108 195.554C179.72 195.554 179.406 195.24 179.406 194.852C179.406 194.465 179.72 194.151 180.108 194.151C180.495 194.151 180.809 194.465 180.809 194.852Z" fill="#0064BD"/>
<path d="M132.096 186.563C132.779 186.563 133.333 186.008 133.333 185.325C133.333 184.641 132.779 184.087 132.096 184.087C131.412 184.087 130.858 184.641 130.858 185.325C130.858 186.008 131.412 186.563 132.096 186.563Z" fill="#0064BD"/>
<path d="M177.01 163.408C177.562 163.408 178.008 162.961 178.008 162.41C178.008 161.859 177.562 161.412 177.01 161.412C176.459 161.412 176.012 161.859 176.012 162.41C176.012 162.961 176.459 163.408 177.01 163.408Z" fill="#0064BD"/>
<path d="M184.94 171.047C184.94 171.434 184.626 171.748 184.239 171.748C183.852 171.748 183.538 171.434 183.538 171.047C183.538 170.66 183.852 170.346 184.239 170.346C184.626 170.346 184.94 170.66 184.94 171.047Z" fill="#0064BD"/>
<path d="M163.693 165.802C163.693 166.189 163.379 166.503 162.992 166.503C162.605 166.503 162.291 166.189 162.291 165.802C162.291 165.415 162.605 165.101 162.992 165.101C163.379 165.101 163.693 165.415 163.693 165.802Z" fill="#0064BD"/>
<path d="M207.68 164.577C207.68 164.867 207.446 165.101 207.157 165.101C206.868 165.101 206.633 164.867 206.633 164.577C206.633 164.288 206.868 164.054 207.157 164.054C207.446 164.054 207.68 164.288 207.68 164.577Z" fill="#0064BD"/>
<path d="M198.721 183.922C199.404 183.922 199.958 183.368 199.958 182.684C199.958 182.001 199.404 181.446 198.721 181.446C198.037 181.446 197.483 182.001 197.483 182.684C197.483 183.368 198.037 183.922 198.721 183.922Z" fill="#0064BD"/>
<path d="M117.971 158.922C118.654 158.922 119.208 158.368 119.208 157.684C119.208 157.001 118.654 156.446 117.971 156.446C117.287 156.446 116.733 157.001 116.733 157.684C116.733 158.368 117.287 158.922 117.971 158.922Z" fill="#0064BD"/>
<path d="M185.641 128.561C186.029 128.561 186.343 128.247 186.343 127.859C186.343 127.472 186.029 127.158 185.641 127.158C185.254 127.158 184.94 127.472 184.94 127.859C184.94 128.247 185.254 128.561 185.641 128.561Z" fill="#0064BD"/>
<path d="M152.496 197.413C152.496 197.801 152.182 198.115 151.795 198.115C151.408 198.115 151.094 197.801 151.094 197.413C151.094 197.026 151.408 196.712 151.795 196.712C152.182 196.712 152.496 197.026 152.496 197.413Z" fill="#0064BD"/>
<path d="M112.996 190.768C112.996 191.155 112.682 191.469 112.295 191.469C111.908 191.469 111.594 191.155 111.594 190.768C111.594 190.381 111.908 190.067 112.295 190.067C112.682 190.067 112.996 190.381 112.996 190.768Z" fill="#0064BD"/>
<path d="M191.42 127.859C191.42 128.247 191.106 128.561 190.719 128.561C190.331 128.561 190.017 128.247 190.017 127.859C190.017 127.472 190.331 127.158 190.719 127.158C191.106 127.158 191.42 127.472 191.42 127.859Z" fill="#0064BD"/>
</g>
<g id="Union_6">
<path d="M77.3437 76.1362C77.3437 76.4253 77.1093 76.6597 76.8202 76.6597C76.5311 76.6597 76.2967 76.4253 76.2967 76.1362C76.2967 75.8471 76.5311 75.6128 76.8202 75.6128C77.1093 75.6128 77.3437 75.8471 77.3437 76.1362Z" fill="#AC76FF"/>
<path d="M107.312 71.0153C107.699 71.0153 108.013 70.7014 108.013 70.3141C108.013 69.9268 107.699 69.6128 107.312 69.6128C106.924 69.6128 106.611 69.9268 106.611 70.3141C106.611 70.7014 106.924 71.0153 107.312 71.0153Z" fill="#AC76FF"/>
<path d="M83.9091 80.2725C84.5928 80.2725 85.147 79.7182 85.147 79.0346C85.147 78.3509 84.5928 77.7967 83.9091 77.7967C83.2255 77.7967 82.6712 78.3509 82.6712 79.0346C82.6712 79.7182 83.2255 80.2725 83.9091 80.2725Z" fill="#AC76FF"/>
<path d="M53.7015 103.946C54.0888 103.946 54.4028 103.632 54.4028 103.244C54.4028 102.857 54.0888 102.543 53.7015 102.543C53.3142 102.543 53.0002 102.857 53.0002 103.244C53.0002 103.632 53.3142 103.946 53.7015 103.946Z" fill="#AC76FF"/>
<path d="M118.371 94.9858C118.371 95.3731 118.057 95.6871 117.67 95.6871C117.283 95.6871 116.969 95.3731 116.969 94.9858C116.969 94.5985 117.283 94.2846 117.67 94.2846C118.057 94.2846 118.371 94.5985 118.371 94.9858Z" fill="#AC76FF"/>
<path d="M31.5214 102.631C32.0726 102.631 32.5195 102.184 32.5195 101.633C32.5195 101.082 32.0726 100.635 31.5214 100.635C30.9703 100.635 30.5234 101.082 30.5234 101.633C30.5234 102.184 30.9703 102.631 31.5214 102.631Z" fill="#AC76FF"/>
<path d="M35.32 107.162C35.32 107.549 35.0061 107.863 34.6188 107.863C34.2315 107.863 33.9175 107.549 33.9175 107.162C33.9175 106.775 34.2315 106.461 34.6188 106.461C35.0061 106.461 35.32 106.775 35.32 107.162Z" fill="#AC76FF"/>
<path d="M58.3456 116.447C59.0292 116.447 59.5835 115.893 59.5835 115.21C59.5835 114.526 59.0292 113.972 58.3456 113.972C57.6619 113.972 57.1077 114.526 57.1077 115.21C57.1077 115.893 57.6619 116.447 58.3456 116.447Z" fill="#AC76FF"/>
<path d="M103.26 93.2927C103.812 93.2927 104.258 92.8459 104.258 92.2947C104.258 91.7435 103.812 91.2967 103.26 91.2967C102.709 91.2967 102.262 91.7435 102.262 92.2947C102.262 92.8459 102.709 93.2927 103.26 93.2927Z" fill="#AC76FF"/>
<path d="M111.19 100.932C111.19 101.319 110.876 101.633 110.489 101.633C110.102 101.633 109.788 101.319 109.788 100.932C109.788 100.545 110.102 100.231 110.489 100.231C110.876 100.231 111.19 100.545 111.19 100.932Z" fill="#AC76FF"/>
<path d="M76.807 94.5306C77.4907 94.5306 78.0449 93.9764 78.0449 93.2927C78.0449 92.609 77.4907 92.0548 76.807 92.0548C76.1234 92.0548 75.5691 92.609 75.5691 93.2927C75.5691 93.9764 76.1234 94.5306 76.807 94.5306Z" fill="#AC76FF"/>
<path d="M111.891 58.4457C112.279 58.4457 112.593 58.1317 112.593 57.7444C112.593 57.3571 112.279 57.0432 111.891 57.0432C111.504 57.0432 111.19 57.3571 111.19 57.7444C111.19 58.1317 111.504 58.4457 111.891 58.4457Z" fill="#AC76FF"/>
<path d="M78.7462 127.298C78.7462 127.686 78.4322 128 78.0449 128C77.6576 128 77.3437 127.686 77.3437 127.298C77.3437 126.911 77.6576 126.597 78.0449 126.597C78.4322 126.597 78.7462 126.911 78.7462 127.298Z" fill="#AC76FF"/>
<path d="M39.2462 120.653C39.2462 121.04 38.9322 121.354 38.5449 121.354C38.1576 121.354 37.8437 121.04 37.8437 120.653C37.8437 120.266 38.1576 119.952 38.5449 119.952C38.9322 119.952 39.2462 120.266 39.2462 120.653Z" fill="#AC76FF"/>
<path d="M82.3574 56.3419C82.3574 56.7292 82.0435 57.0432 81.6562 57.0432C81.2689 57.0432 80.9549 56.7292 80.9549 56.3419C80.9549 55.9546 81.2689 55.6406 81.6562 55.6406C82.0435 55.6406 82.3574 55.9546 82.3574 56.3419Z" fill="#AC76FF"/>
</g>
</g>
<defs>
<linearGradient id="paint0_linear_3031_68198" x1="69.165" y1="215.908" x2="226.165" y2="111.563" gradientUnits="userSpaceOnUse">
<stop offset="0.0113857" stop-color="#B6D7E9"/>
<stop offset="0.743675" stop-color="#2BACF5"/>
</linearGradient>
<radialGradient id="paint1_radial_3031_68198" cx="0" cy="0" r="1" gradientUnits="userSpaceOnUse" gradientTransform="translate(143.668 192.75) rotate(-68.7495) scale(77.2528 72.6588)">
<stop offset="0.751005" stop-color="#3FB3F4" stop-opacity="0"/>
<stop offset="0.94959" stop-color="#2970CA"/>
</radialGradient>
<radialGradient id="paint2_radial_3031_68198" cx="0" cy="0" r="1" gradientUnits="userSpaceOnUse" gradientTransform="translate(159.918 142.5) rotate(41.7295) scale(12.3946 33.2185)">
<stop offset="0.62978" stop-color="#297CD2"/>
<stop offset="0.921557" stop-color="#297CD2" stop-opacity="0"/>
</radialGradient>
<radialGradient id="paint3_radial_3031_68198" cx="0" cy="0" r="1" gradientUnits="userSpaceOnUse" gradientTransform="translate(144.168 138) rotate(95.5722) scale(10.2987 34.7375)">
<stop offset="0.263995" stop-color="#297CD2"/>
<stop offset="0.921557" stop-color="#297CD2" stop-opacity="0"/>
</radialGradient>
<radialGradient id="paint4_radial_3031_68198" cx="0" cy="0" r="1" gradientUnits="userSpaceOnUse" gradientTransform="translate(245.668 195.75) rotate(-151.557) scale(68.2367 132.816)">
<stop offset="0.62978" stop-color="#39B1F5"/>
<stop offset="0.921557" stop-color="#3CB2F4" stop-opacity="0"/>
</radialGradient>
<radialGradient id="paint5_radial_3031_68198" cx="0" cy="0" r="1" gradientUnits="userSpaceOnUse" gradientTransform="translate(224.168 158.649) rotate(19.5265) scale(39.715 19.0823)">
<stop offset="0.40678" stop-color="#297CD2"/>
<stop offset="1" stop-color="#2C85D8" stop-opacity="0"/>
</radialGradient>
<radialGradient id="paint6_radial_3031_68198" cx="0" cy="0" r="1" gradientUnits="userSpaceOnUse" gradientTransform="translate(101.665 143.908) rotate(35.3313) scale(48.4175 58.1142)">
<stop offset="0.405268" stop-color="#2970CA"/>
<stop offset="0.729071" stop-color="#8FCBED" stop-opacity="0"/>
</radialGradient>
<linearGradient id="paint7_linear_3031_68198" x1="-1.83154" y1="146.25" x2="155.168" y2="41.9053" gradientUnits="userSpaceOnUse">
<stop offset="0.223958" stop-color="#B6D7E9"/>
<stop offset="0.743675" stop-color="#2BACF5"/>
</linearGradient>
<radialGradient id="paint8_radial_3031_68198" cx="0" cy="0" r="1" gradientUnits="userSpaceOnUse" gradientTransform="translate(57.1685 143.25) rotate(-63.1075) scale(100.099 76.526)">
<stop offset="0.868772" stop-color="#50B1E8" stop-opacity="0"/>
<stop offset="1" stop-color="#286FC9"/>
</radialGradient>
<radialGradient id="paint9_radial_3031_68198" cx="0" cy="0" r="1" gradientUnits="userSpaceOnUse" gradientTransform="translate(30.6685 74.25) rotate(35.3313) scale(48.4175 58.1142)">
<stop offset="0.405268" stop-color="#2970CA"/>
<stop offset="0.729071" stop-color="#8FCBED" stop-opacity="0"/>
</radialGradient>
<radialGradient id="paint10_radial_3031_68198" cx="0" cy="0" r="1" gradientUnits="userSpaceOnUse" gradientTransform="translate(142.918 117.5) rotate(-121.342) scale(38.931 32.7566)">
<stop offset="0.6745" stop-color="#3CB2F4"/>
<stop offset="0.898433" stop-color="#3CB2F4" stop-opacity="0"/>
</radialGradient>
<radialGradient id="paint11_radial_3031_68198" cx="0" cy="0" r="1" gradientUnits="userSpaceOnUse" gradientTransform="translate(93.4549 136.077) rotate(-41.5764) scale(22.3422 25.1795)">
<stop offset="0.443218" stop-color="#0786CE"/>
<stop offset="0.921557" stop-color="#8ECBEE" stop-opacity="0"/>
</radialGradient>
<radialGradient id="paint12_radial_3031_68198" cx="0" cy="0" r="1" gradientUnits="userSpaceOnUse" gradientTransform="translate(140.418 111.25) rotate(53.489) scale(23.9505 16.993)">
<stop offset="0.40678" stop-color="#0786CE"/>
<stop offset="1" stop-color="#3FB1F4" stop-opacity="0"/>
</radialGradient>
<radialGradient id="paint13_radial_3031_68198" cx="0" cy="0" r="1" gradientUnits="userSpaceOnUse" gradientTransform="translate(99.1714 28.092) rotate(93.8436) scale(193.936 167.842)">
<stop offset="0.178287" stop-color="#E6D5D0"/>
<stop offset="0.482173" stop-color="#FCF1E8"/>
</radialGradient>
<radialGradient id="paint14_radial_3031_68198" cx="0" cy="0" r="1" gradientUnits="userSpaceOnUse" gradientTransform="translate(57.1685 143.25) rotate(-63.1075) scale(100.099 76.526)">
<stop offset="0.868772" stop-color="#F2E4DD" stop-opacity="0"/>
<stop offset="1" stop-color="#D1BEB8"/>
</radialGradient>
<radialGradient id="paint15_radial_3031_68198" cx="0" cy="0" r="1" gradientUnits="userSpaceOnUse" gradientTransform="translate(34.6714 85.092) rotate(-49.6669) scale(34.7635 24.6083)">
<stop offset="0.405268" stop-color="#C8B5AE"/>
<stop offset="0.802669" stop-color="#FCF1E8" stop-opacity="0"/>
</radialGradient>
<radialGradient id="paint16_radial_3031_68198" cx="0" cy="0" r="1" gradientUnits="userSpaceOnUse" gradientTransform="translate(142.918 117.5) rotate(-121.342) scale(38.931 32.7566)">
<stop offset="0.6745" stop-color="#E8D7D2"/>
<stop offset="0.898433" stop-color="#E8D7D3" stop-opacity="0"/>
</radialGradient>
<radialGradient id="paint17_radial_3031_68198" cx="0" cy="0" r="1" gradientUnits="userSpaceOnUse" gradientTransform="translate(93.4549 136.077) rotate(-41.5764) scale(22.3422 25.1795)">
<stop offset="0.443218" stop-color="#D1BEB8"/>
<stop offset="0.921557" stop-color="#F5E8E1" stop-opacity="0"/>
</radialGradient>
<radialGradient id="paint18_radial_3031_68198" cx="0" cy="0" r="1" gradientUnits="userSpaceOnUse" gradientTransform="translate(140.418 111.25) rotate(53.489) scale(23.9505 16.993)">
<stop offset="0.40678" stop-color="#D2BFB9"/>
<stop offset="1" stop-color="#EDDED8" stop-opacity="0"/>
</radialGradient>
<linearGradient id="paint19_linear_3031_68198" x1="132.168" y1="69.2495" x2="59.3858" y2="175.401" gradientUnits="userSpaceOnUse">
<stop offset="0.40601" stop-color="#F0F0F0"/>
<stop offset="0.700403" stop-color="#C9F5FF"/>
</linearGradient>
<radialGradient id="paint20_radial_3031_68198" cx="0" cy="0" r="1" gradientUnits="userSpaceOnUse" gradientTransform="translate(163.168 103.5) rotate(-39.1966) scale(19.6779 45.5741)">
<stop offset="0.548943" stop-color="#C6CBCE"/>
<stop offset="0.874818" stop-color="#E7E7E7" stop-opacity="0"/>
</radialGradient>
<radialGradient id="paint21_radial_3031_68198" cx="0" cy="0" r="1" gradientUnits="userSpaceOnUse" gradientTransform="translate(112.918 113.75) rotate(-91.4321) scale(10.0031 39.5189)">
<stop offset="0.548943" stop-color="#CED1D3"/>
<stop offset="0.874818" stop-color="#E7E7E7" stop-opacity="0"/>
</radialGradient>
<radialGradient id="paint22_radial_3031_68198" cx="0" cy="0" r="1" gradientUnits="userSpaceOnUse" gradientTransform="translate(133.855 149.687) rotate(-56.2519) scale(28.4632 11.4088)">
<stop offset="0.430214" stop-color="#C3D3D7"/>
<stop offset="0.84817" stop-color="#DCEEF3" stop-opacity="0"/>
</radialGradient>
<radialGradient id="paint23_radial_3031_68198" cx="0" cy="0" r="1" gradientUnits="userSpaceOnUse" gradientTransform="translate(97.168 128.5) rotate(-131.673) scale(7.61423 8.22927)">
<stop offset="0.670597" stop-color="#B4C8CC"/>
<stop offset="0.84817" stop-color="#D3F3FA" stop-opacity="0"/>
</radialGradient>
<linearGradient id="paint24_linear_3031_68198" x1="132.056" y1="134.938" x2="131.959" y2="123.734" gradientUnits="userSpaceOnUse">
<stop offset="0.0274229" stop-color="#E4E9EA" stop-opacity="0"/>
<stop offset="0.148084" stop-color="#BDCFD2"/>
<stop offset="0.892803" stop-color="#BDCFD2"/>
<stop offset="1" stop-color="#E4E9EA" stop-opacity="0"/>
</linearGradient>
<linearGradient id="paint25_linear_3031_68198" x1="128.98" y1="126.969" x2="130.512" y2="127.844" gradientUnits="userSpaceOnUse">
<stop offset="0.341754" stop-color="#DEECEF"/>
<stop offset="1" stop-color="#DEECEF" stop-opacity="0"/>
</linearGradient>
<linearGradient id="paint26_linear_3031_68198" x1="133.965" y1="125.438" x2="132.675" y2="126.18" gradientUnits="userSpaceOnUse">
<stop offset="0.211061" stop-color="#DDECEF"/>
<stop offset="0.971633" stop-color="#DDECEF" stop-opacity="0"/>
</linearGradient>
<radialGradient id="paint27_radial_3031_68198" cx="0" cy="0" r="1" gradientUnits="userSpaceOnUse" gradientTransform="translate(133.919 128.011) rotate(145.556) scale(15.4092 15.1324)">
<stop offset="0.490243" stop-color="#D9EEF3" stop-opacity="0"/>
<stop offset="0.544521" stop-color="#D9EEF3" stop-opacity="0.569406"/>
<stop offset="0.597276" stop-color="#D9EEF3"/>
</radialGradient>
<linearGradient id="paint28_linear_3031_68198" x1="108.323" y1="128.384" x2="120.168" y2="128.514" gradientUnits="userSpaceOnUse">
<stop stop-color="#D5F0F6" stop-opacity="0"/>
<stop offset="0.114025" stop-color="#B4C8CC"/>
<stop offset="0.892803" stop-color="#B4C8CC"/>
<stop offset="1" stop-color="#D8EFF3" stop-opacity="0"/>
</linearGradient>
<linearGradient id="paint29_linear_3031_68198" x1="114.246" y1="123.313" x2="114.246" y2="124.757" gradientUnits="userSpaceOnUse">
<stop offset="0.230441" stop-color="#DDECF0"/>
<stop offset="1" stop-color="#DDECF0" stop-opacity="0"/>
</linearGradient>
<linearGradient id="paint30_linear_3031_68198" x1="114.246" y1="134.543" x2="114.246" y2="124.757" gradientUnits="userSpaceOnUse">
<stop offset="0.0347291" stop-color="#D5F0F6"/>
<stop offset="0.133348" stop-color="#D5F0F6" stop-opacity="0"/>
</linearGradient>
<linearGradient id="paint31_linear_3031_68198" x1="143.944" y1="128.384" x2="155.788" y2="128.514" gradientUnits="userSpaceOnUse">
<stop stop-color="#E2EAEB" stop-opacity="0"/>
<stop offset="0.114025" stop-color="#BDCFD2" stop-opacity="0.862745"/>
<stop offset="0.892803" stop-color="#BDCFD2"/>
<stop offset="1" stop-color="#E4E9EA" stop-opacity="0"/>
</linearGradient>
<linearGradient id="paint32_linear_3031_68198" x1="149.866" y1="123.313" x2="149.866" y2="125.438" gradientUnits="userSpaceOnUse">
<stop offset="0.230441" stop-color="#E7E7E7"/>
<stop offset="1" stop-color="#E7E7E7" stop-opacity="0"/>
</linearGradient>
<linearGradient id="paint33_linear_3031_68198" x1="147.293" y1="122.828" x2="149.09" y2="124.516" gradientUnits="userSpaceOnUse">
<stop offset="0.230441" stop-color="#E7E7E7"/>
<stop offset="0.651767" stop-color="#E7E7E7" stop-opacity="0"/>
</linearGradient>
<linearGradient id="paint34_linear_3031_68198" x1="149.866" y1="134.543" x2="149.866" y2="124.757" gradientUnits="userSpaceOnUse">
<stop offset="0.0347291" stop-color="#E0EBED"/>
<stop offset="0.133348" stop-color="#E0EBED" stop-opacity="0"/>
</linearGradient>
<radialGradient id="paint35_radial_3031_68198" cx="0" cy="0" r="1" gradientUnits="userSpaceOnUse" gradientTransform="translate(99.8874 123.631) rotate(108.435) scale(9.94433)">
<stop stop-color="#F1FFB7"/>
<stop offset="0.25" stop-color="#B9DC4E"/>
<stop offset="0.645065" stop-color="#6FB12F"/>
<stop offset="1" stop-color="#FF7C03"/>
</radialGradient>
<radialGradient id="paint36_radial_3031_68198" cx="0" cy="0" r="1" gradientUnits="userSpaceOnUse" gradientTransform="translate(98.8643 126.11) rotate(97.8153) scale(9.60198)">
<stop offset="0.446038" stop-color="white" stop-opacity="0"/>
<stop offset="0.841379" stop-color="white"/>
</radialGradient>
<linearGradient id="paint37_linear_3031_68198" x1="130.543" y1="131.611" x2="136.048" y2="121.714" gradientUnits="userSpaceOnUse">
<stop offset="0.146383" stop-color="#A841FF"/>
<stop offset="0.919966" stop-color="#DDB5FF"/>
</linearGradient>
<linearGradient id="paint38_linear_3031_68198" x1="133.715" y1="127.125" x2="131.219" y2="125.777" gradientUnits="userSpaceOnUse">
<stop offset="0.462648" stop-color="#B980E8" stop-opacity="0"/>
<stop offset="0.978889" stop-color="#9141D3"/>
</linearGradient>
<linearGradient id="paint39_linear_3031_68198" x1="133.387" y1="129.219" x2="139.015" y2="125.914" gradientUnits="userSpaceOnUse">
<stop offset="0.789355" stop-color="#E0BCFF" stop-opacity="0"/>
<stop offset="0.978889" stop-color="#EAD1FF"/>
</linearGradient>
<linearGradient id="paint40_linear_3031_68198" x1="135.293" y1="128.407" x2="135.237" y2="131.606" gradientUnits="userSpaceOnUse">
<stop offset="0.537074" stop-color="#AD74DD" stop-opacity="0"/>
<stop offset="0.978889" stop-color="#9141D3"/>
</linearGradient>
<radialGradient id="paint41_radial_3031_68198" cx="0" cy="0" r="1" gradientUnits="userSpaceOnUse" gradientTransform="translate(139.632 119.84) rotate(22.4533) scale(18.6492 19.9136)">
<stop offset="0.451958" stop-color="#FFA800"/>
<stop offset="1" stop-color="#FF7A00"/>
</radialGradient>
<radialGradient id="paint42_radial_3031_68198" cx="0" cy="0" r="1" gradientUnits="userSpaceOnUse" gradientTransform="translate(150.301 121.238) rotate(48.3262) scale(2.1871 7.17655)">
<stop offset="0.291119" stop-color="#C94800"/>
<stop offset="0.938933" stop-color="#FF9202" stop-opacity="0"/>
</radialGradient>
<radialGradient id="paint43_radial_3031_68198" cx="0" cy="0" r="1" gradientUnits="userSpaceOnUse" gradientTransform="translate(147.637 125.25) rotate(85.5096) scale(5.98713 13.2693)">
<stop offset="0.243675" stop-color="#C94800"/>
<stop offset="0.377261" stop-color="#FF9802" stop-opacity="0"/>
</radialGradient>
<linearGradient id="paint44_linear_3031_68198" x1="150.08" y1="123.06" x2="152.262" y2="125.782" gradientUnits="userSpaceOnUse">
<stop stop-color="#FFCF8F"/>
<stop offset="0.305853" stop-color="#FFA51F"/>
<stop offset="0.911324" stop-color="#FFA51F"/>
</linearGradient>
<linearGradient id="paint45_linear_3031_68198" x1="132.509" y1="130.591" x2="121.404" y2="121.856" gradientUnits="userSpaceOnUse">
<stop stop-color="#0175E1"/>
<stop offset="1" stop-color="#40B3F4"/>
</linearGradient>
<radialGradient id="paint46_radial_3031_68198" cx="0" cy="0" r="1" gradientUnits="userSpaceOnUse" gradientTransform="translate(124.83 122.965) rotate(-0.556252) scale(1.60945 5.56783)">
<stop offset="0.52913" stop-color="#0661CB"/>
<stop offset="0.938933" stop-color="#2295EC" stop-opacity="0"/>
</radialGradient>
<linearGradient id="paint47_linear_3031_68198" x1="126.377" y1="130.591" x2="126.346" y2="128.668" gradientUnits="userSpaceOnUse">
<stop offset="0.106569" stop-color="#0661CB"/>
<stop offset="1" stop-color="#007DE6" stop-opacity="0"/>
</linearGradient>
<linearGradient id="paint48_linear_3031_68198" x1="132.658" y1="125.574" x2="130.549" y2="125.574" gradientUnits="userSpaceOnUse">
<stop offset="0.140384" stop-color="#0661CB"/>
<stop offset="0.918518" stop-color="#007DE6" stop-opacity="0"/>
</linearGradient>
<radialGradient id="paint49_radial_3031_68198" cx="0" cy="0" r="1" gradientUnits="userSpaceOnUse" gradientTransform="translate(128.08 123.059) rotate(178.247) scale(1.53197 5.29978)">
<stop offset="0.52913" stop-color="#0661CB"/>
<stop offset="0.938933" stop-color="#2295EC" stop-opacity="0"/>
</radialGradient>
<linearGradient id="paint50_linear_3031_68198" x1="119.068" y1="127.724" x2="119.068" y2="124.717" gradientUnits="userSpaceOnUse">
<stop offset="0.0452987" stop-color="#B59E8D"/>
<stop offset="0.175185" stop-color="#B59E8D"/>
<stop offset="0.414177" stop-color="#E4D2BC"/>
<stop offset="0.663559" stop-color="#FFF3E0"/>
</linearGradient>
<radialGradient id="paint51_radial_3031_68198" cx="0" cy="0" r="1" gradientUnits="userSpaceOnUse" gradientTransform="translate(119.277 126.307) rotate(179.789) scale(4.25003 2.03784)">
<stop offset="0.676772" stop-color="#D5C1AD" stop-opacity="0"/>
<stop offset="0.862444" stop-color="#A69181"/>
</radialGradient>
<radialGradient id="paint52_radial_3031_68198" cx="0" cy="0" r="1" gradientUnits="userSpaceOnUse" gradientTransform="translate(121.777 125.76) rotate(175.276) scale(1.89707 1.55885)">
<stop offset="0.14904" stop-color="white"/>
<stop offset="0.650363" stop-color="#FFF6E7" stop-opacity="0"/>
</radialGradient>
<linearGradient id="paint53_linear_3031_68198" x1="119.068" y1="124.539" x2="119.068" y2="121.531" gradientUnits="userSpaceOnUse">
<stop offset="0.0452987" stop-color="#B59E8D"/>
<stop offset="0.175185" stop-color="#B59E8D"/>
<stop offset="0.414177" stop-color="#E4D2BC"/>
<stop offset="0.663559" stop-color="#FFF3E0"/>
</linearGradient>
<radialGradient id="paint54_radial_3031_68198" cx="0" cy="0" r="1" gradientUnits="userSpaceOnUse" gradientTransform="translate(119.277 123.121) rotate(179.789) scale(4.25003 2.03784)">
<stop offset="0.676772" stop-color="#D5C1AD" stop-opacity="0"/>
<stop offset="0.862444" stop-color="#A69181"/>
</radialGradient>
<radialGradient id="paint55_radial_3031_68198" cx="0" cy="0" r="1" gradientUnits="userSpaceOnUse" gradientTransform="translate(121.777 122.574) rotate(175.276) scale(1.89707 1.55885)">
<stop offset="0.14904" stop-color="white"/>
<stop offset="0.650363" stop-color="#FFF6E7" stop-opacity="0"/>
</radialGradient>
</defs>
</svg>
